<svg xmlns="http://www.w3.org/2000/svg" xmlns:xlink="http://www.w3.org/1999/xlink" contentStyleType="text/css" data-diagram-type="SEQUENCE" height="1000px" preserveAspectRatio="none" style="width:1101px;height:1000px;background:#FFFFFF;" version="1.1" viewBox="0 0 1101 1000" width="1101px" zoomAndPan="magnify"><defs/><g><g><title>GatewayAgent</title><rect fill="#000000" fill-opacity="0.00000" height="190.7969" width="8" x="73.6421" y="36.2969"/><line style="stroke:#181818;stroke-width:0.5;stroke-dasharray:5,5;" x1="77" x2="77" y1="36.2969" y2="227.0938"/></g><line style="stroke:#181818;stroke-width:0.5;stroke-dasharray:1,4;" x1="77" x2="77" y1="227.0938" y2="255.0938"/><g><title>GatewayAgent</title><rect fill="#000000" fill-opacity="0.00000" height="738.375" width="8" x="73.6421" y="255.0938"/><line style="stroke:#181818;stroke-width:0.5;stroke-dasharray:5,5;" x1="77" x2="77" y1="255.0938" y2="993.4688"/></g><g><title>MN-CSE .ACME.</title><rect fill="#000000" fill-opacity="0.00000" height="190.7969" width="8" x="331.8896" y="36.2969"/><line style="stroke:#181818;stroke-width:0.5;stroke-dasharray:5,5;" x1="335.5083" x2="335.5083" y1="36.2969" y2="227.0938"/></g><line style="stroke:#181818;stroke-width:0.5;stroke-dasharray:1,4;" x1="335.5083" x2="335.5083" y1="227.0938" y2="255.0938"/><g><title>MN-CSE .ACME.</title><rect fill="#000000" fill-opacity="0.00000" height="738.375" width="8" x="331.8896" y="255.0938"/><line style="stroke:#181818;stroke-width:0.5;stroke-dasharray:5,5;" x1="335.5083" x2="335.5083" y1="255.0938" y2="993.4688"/></g><g><title>IN-CSE .ACME.</title><rect fill="#000000" fill-opacity="0.00000" height="190.7969" width="8" x="530.9331" y="36.2969"/><line style="stroke:#181818;stroke-width:0.5;stroke-dasharray:5,5;" x1="534.5269" x2="534.5269" y1="36.2969" y2="227.0938"/></g><line style="stroke:#181818;stroke-width:0.5;stroke-dasharray:1,4;" x1="534.5269" x2="534.5269" y1="227.0938" y2="255.0938"/><g><title>IN-CSE .ACME.</title><rect fill="#000000" fill-opacity="0.00000" height="738.375" width="8" x="530.9331" y="255.0938"/><line style="stroke:#181818;stroke-width:0.5;stroke-dasharray:5,5;" x1="534.5269" x2="534.5269" y1="255.0938" y2="993.4688"/></g><g><title>Orchestrator Application</title><rect fill="#000000" fill-opacity="0.00000" height="190.7969" width="8" x="992.4326" y="36.2969"/><line style="stroke:#181818;stroke-width:0.5;stroke-dasharray:5,5;" x1="995.6519" x2="995.6519" y1="36.2969" y2="227.0938"/></g><line style="stroke:#181818;stroke-width:0.5;stroke-dasharray:1,4;" x1="995.6519" x2="995.6519" y1="227.0938" y2="255.0938"/><g><title>Orchestrator Application</title><rect fill="#000000" fill-opacity="0.00000" height="738.375" width="8" x="992.4326" y="255.0938"/><line style="stroke:#181818;stroke-width:0.5;stroke-dasharray:5,5;" x1="995.6519" x2="995.6519" y1="255.0938" y2="993.4688"/></g><g class="participant participant-head" data-participant="GA"><rect fill="#E2E2F0" height="30.2969" rx="2.5" ry="2.5" style="stroke:#181818;stroke-width:0.5;" width="117.2842" x="19" y="5"/><text fill="#000000" font-family="sans-serif" font-size="14" lengthAdjust="spacing" textLength="103.2842" x="26" y="24.9951">GatewayAgent</text></g><g class="participant participant-head" data-participant="MN"><rect fill="#E2E2F0" height="30.2969" rx="2.5" ry="2.5" style="stroke:#181818;stroke-width:0.5;" width="124.7627" x="273.5083" y="5"/><text fill="#000000" font-family="sans-serif" font-size="14" lengthAdjust="spacing" textLength="110.7627" x="280.5083" y="24.9951">MN-CSE (ACME)</text></g><g class="participant participant-head" data-participant="IN"><rect fill="#E2E2F0" height="30.2969" rx="2.5" ry="2.5" style="stroke:#181818;stroke-width:0.5;" width="116.8125" x="476.5269" y="5"/><text fill="#000000" font-family="sans-serif" font-size="14" lengthAdjust="spacing" textLength="102.8125" x="483.5269" y="24.9951">IN-CSE (ACME)</text></g><g class="participant participant-head" data-participant="CB"><rect fill="#E2E2F0" height="30.2969" rx="2.5" ry="2.5" style="stroke:#181818;stroke-width:0.5;" width="185.5615" x="903.6519" y="5"/><text fill="#000000" font-family="sans-serif" font-size="14" lengthAdjust="spacing" textLength="171.5615" x="910.6519" y="24.9951">Orchestrator Application</text></g><path d="M5,51.2969 L5,76.2969 L1070,76.2969 L1070,61.2969 L1060,51.2969 L5,51.2969" fill="#FEFFDD" style="stroke:#181818;stroke-width:0.5;"/><path d="M1060,51.2969 L1060,61.2969 L1070,61.2969 L1060,51.2969" fill="#FEFFDD" style="stroke:#181818;stroke-width:0.5;"/><text fill="#000000" font-family="sans-serif" font-size="13" lengthAdjust="spacing" textLength="417.1616" x="324.5259" y="68.3638">run components on host machine in separate docker containers</text><g class="message" data-participant-1="CB" data-participant-2="IN"><polygon fill="#181818" points="545.9331,98.5625,535.9331,102.5625,545.9331,106.5625,541.9331,102.5625" style="stroke:#181818;stroke-width:1;"/><line style="stroke:#181818;stroke-width:1;" x1="539.9331" x2="995.4326" y1="102.5625" y2="102.5625"/><text fill="#000000" font-family="sans-serif" font-size="13" lengthAdjust="spacing" textLength="206.7368" x="551.9331" y="97.4966">CREATE &lt;AE&gt; as Corchestrator</text></g><g class="message" data-participant-1="GA" data-participant-2="IN"><polygon fill="#181818" points="522.9331,127.6953,532.9331,131.6953,522.9331,135.6953,526.9331,131.6953" style="stroke:#181818;stroke-width:1;"/><line style="stroke:#181818;stroke-width:1;" x1="77.6421" x2="528.9331" y1="131.6953" y2="131.6953"/><text fill="#000000" font-family="sans-serif" font-size="13" lengthAdjust="spacing" textLength="219.6353" x="84.6421" y="126.6294">CREATE &lt;AE&gt; as Cgatewayagent</text></g><g class="message" data-participant-1="GA" data-participant-2="IN"><polygon fill="#181818" points="522.9331,156.8281,532.9331,160.8281,522.9331,164.8281,526.9331,160.8281" style="stroke:#181818;stroke-width:1;"/><line style="stroke:#181818;stroke-width:1;" x1="77.6421" x2="528.9331" y1="160.8281" y2="160.8281"/><text fill="#000000" font-family="sans-serif" font-size="13" lengthAdjust="spacing" textLength="290.7925" x="84.6421" y="155.7622">CREATE subscription to Cgatewayagent/cmd</text></g><g class="message" data-participant-1="GA" data-participant-2="IN"><polygon fill="#181818" points="522.9331,185.9609,532.9331,189.9609,522.9331,193.9609,526.9331,189.9609" style="stroke:#181818;stroke-width:1;"/><line style="stroke:#181818;stroke-width:1;" x1="77.6421" x2="528.9331" y1="189.9609" y2="189.9609"/><text fill="#000000" font-family="sans-serif" font-size="13" lengthAdjust="spacing" textLength="297.8511" x="84.6421" y="184.895">CREATE Cgatewayagent/data (MN-CSE name)</text></g><g class="message" data-participant-1="GA" data-participant-2="IN"><polygon fill="#181818" points="522.9331,215.0938,532.9331,219.0938,522.9331,223.0938,526.9331,219.0938" style="stroke:#181818;stroke-width:1;"/><line style="stroke:#181818;stroke-width:1;" x1="77.6421" x2="528.9331" y1="219.0938" y2="219.0938"/><text fill="#000000" font-family="sans-serif" font-size="13" lengthAdjust="spacing" textLength="256.6294" x="84.6421" y="214.0278">CREATE Cgatewayagent/cmd (execute)</text></g><path d="M562,260.0938 L562,285.0938 L990,285.0938 L990,270.0938 L980,260.0938 L562,260.0938" fill="#FEFFDD" style="stroke:#181818;stroke-width:0.5;"/><path d="M980,260.0938 L980,270.0938 L990,270.0938 L980,260.0938" fill="#FEFFDD" style="stroke:#181818;stroke-width:0.5;"/><text fill="#000000" font-family="sans-serif" font-size="13" lengthAdjust="spacing" textLength="407.4561" x="568" y="277.1606">Orchestrator subscribes to &lt;Cgatewayagent&gt; resources : TBC</text><path d="M739,295.2266 L739,350.2266 L990,350.2266 L990,305.2266 L980,295.2266 L739,295.2266" fill="#FEFFDD" style="stroke:#181818;stroke-width:0.5;"/><path d="M980,295.2266 L980,305.2266 L990,305.2266 L980,295.2266" fill="#FEFFDD" style="stroke:#181818;stroke-width:0.5;"/><text fill="#000000" font-family="sans-serif" font-size="13" lengthAdjust="spacing" textLength="222.5107" x="745" y="312.2935">Orchestrator creates &lt;container&gt;</text><text fill="#000000" font-family="sans-serif" font-size="13" lengthAdjust="spacing" textLength="226.5161" x="745" y="327.4263">resource (and &lt;contentInstance&gt;)</text><text fill="#000000" font-family="sans-serif" font-size="13" lengthAdjust="spacing" textLength="215.8267" x="745" y="342.5591">describing the Gateway(MN-CSE)</text><g class="message" data-participant-1="CB" data-participant-2="IN"><polygon fill="#181818" points="545.9331,372.7578,535.9331,376.7578,545.9331,380.7578,541.9331,376.7578" style="stroke:#181818;stroke-width:1;"/><line style="stroke:#181818;stroke-width:1;" x1="539.9331" x2="995.4326" y1="376.7578" y2="376.7578"/><text fill="#000000" font-family="sans-serif" font-size="13" lengthAdjust="spacing" textLength="343.0146" x="551.9331" y="371.6919">CREATE Cgatewayagent/data/&lt;cin&gt; (MN-CSE name)</text></g><g class="message" data-participant-1="CB" data-participant-2="IN"><polygon fill="#181818" points="545.9331,401.8906,535.9331,405.8906,545.9331,409.8906,541.9331,405.8906" style="stroke:#181818;stroke-width:1;"/><line style="stroke:#181818;stroke-width:1;" x1="539.9331" x2="995.4326" y1="405.8906" y2="405.8906"/><text fill="#000000" font-family="sans-serif" font-size="13" lengthAdjust="spacing" textLength="301.793" x="551.9331" y="400.8247">CREATE Cgatewayagent/cmd/&lt;cin&gt; (execute)</text></g><g class="message" data-participant-1="IN" data-participant-2="GA"><polygon fill="#181818" points="88.6421,431.0234,78.6421,435.0234,88.6421,439.0234,84.6421,435.0234" style="stroke:#181818;stroke-width:1;"/><line style="stroke:#181818;stroke-width:1;" x1="82.6421" x2="533.9331" y1="435.0234" y2="435.0234"/><text fill="#000000" font-family="sans-serif" font-size="13" lengthAdjust="spacing" textLength="356.1162" x="94.6421" y="429.9575">NOTIFY of new Gateway resource Cgatewayagent/cmd</text></g><g class="message" data-participant-1="GA" data-participant-2="IN"><polygon fill="#181818" points="522.9331,460.1563,532.9331,464.1563,522.9331,468.1563,526.9331,464.1563" style="stroke:#181818;stroke-width:1;"/><line style="stroke:#181818;stroke-width:1;" x1="77.6421" x2="528.9331" y1="464.1563" y2="464.1563"/><text fill="#000000" font-family="sans-serif" font-size="13" lengthAdjust="spacing" textLength="432.0723" x="84.6421" y="459.0903">Gateway Agent retrieves Cgatewayagent/cmd/&lt;contentInstance&gt;</text></g><path d="M82,477.1563 L82,517.1563 L422,517.1563 L422,487.1563 L412,477.1563 L82,477.1563" fill="#FEFFDD" style="stroke:#181818;stroke-width:0.5;"/><path d="M412,477.1563 L412,487.1563 L422,487.1563 L412,477.1563" fill="#FEFFDD" style="stroke:#181818;stroke-width:0.5;"/><text fill="#000000" font-family="sans-serif" font-size="13" lengthAdjust="spacing" textLength="230.6167" x="88" y="494.2231">Checks the command == 'execute'</text><text fill="#000000" font-family="sans-serif" font-size="13" lengthAdjust="spacing" textLength="319.5283" x="88" y="509.356">Deletes Cgatewayagent/cmd/&lt;contentInstance&gt;</text><g class="message" data-participant-1="GA" data-participant-2="IN"><polygon fill="#181818" points="522.9331,539.5547,532.9331,543.5547,522.9331,547.5547,526.9331,543.5547" style="stroke:#181818;stroke-width:1;"/><line style="stroke:#181818;stroke-width:1;" x1="77.6421" x2="528.9331" y1="543.5547" y2="543.5547"/><text fill="#000000" font-family="sans-serif" font-size="13" lengthAdjust="spacing" textLength="433.291" x="84.6421" y="538.4888">Gateway Agent retrieves Cgatewayagent/data/&lt;contentInstance&gt;</text></g><path d="M82,556.5547 L82,611.5547 L276,611.5547 L276,566.5547 L266,556.5547 L82,556.5547" fill="#FEFFDD" style="stroke:#181818;stroke-width:0.5;"/><path d="M266,556.5547 L266,566.5547 L276,566.5547 L266,556.5547" fill="#FEFFDD" style="stroke:#181818;stroke-width:0.5;"/><text fill="#000000" font-family="sans-serif" font-size="13" lengthAdjust="spacing" textLength="165.439" x="88" y="573.6216">modify config.ini with the</text><text fill="#000000" font-family="sans-serif" font-size="13" lengthAdjust="spacing" textLength="133.0977" x="88" y="588.7544">mn-cse name and id</text><text fill="#000000" font-family="sans-serif" font-size="13" lengthAdjust="spacing" textLength="173.4116" x="88" y="603.8872">(re)start MN-CSE in docker</text><path d="M19,621.9531 L19,676.9531 L393,676.9531 L393,631.9531 L383,621.9531 L19,621.9531" fill="#FEFFDD" style="stroke:#181818;stroke-width:0.5;"/><path d="M383,621.9531 L383,631.9531 L393,631.9531 L383,621.9531" fill="#FEFFDD" style="stroke:#181818;stroke-width:0.5;"/><text fill="#000000" font-family="sans-serif" font-size="13" lengthAdjust="spacing" textLength="248.3838" x="77.4436" y="639.02">Gateway Agent registers with MN-CSE</text><text fill="#000000" font-family="sans-serif" font-size="13" lengthAdjust="spacing" textLength="194.1494" x="77.4436" y="654.1528">(this is a second registration -</text><text fill="#000000" font-family="sans-serif" font-size="13" lengthAdjust="spacing" textLength="184.0313" x="77.4436" y="669.2856">use a different &lt;AE&gt; name)</text><g class="message" data-participant-1="GA" data-participant-2="MN"><polygon fill="#181818" points="323.8896,699.4844,333.8896,703.4844,323.8896,707.4844,327.8896,703.4844" style="stroke:#181818;stroke-width:1;"/><line style="stroke:#181818;stroke-width:1;" x1="77.6421" x2="329.8896" y1="703.4844" y2="703.4844"/><text fill="#000000" font-family="sans-serif" font-size="13" lengthAdjust="spacing" textLength="234.2476" x="84.6421" y="698.4185">CREATE &lt;AE&gt; as GatewayAgentMN</text></g><rect fill="#EEEEEE" height="3" style="stroke:#EEEEEE;stroke-width:1;" width="1094.2134" x="0" y="734.3789"/><line style="stroke:#000000;stroke-width:1;" x1="0" x2="1094.2134" y1="734.3789" y2="734.3789"/><line style="stroke:#000000;stroke-width:1;" x1="0" x2="1094.2134" y1="737.3789" y2="737.3789"/><rect fill="#EEEEEE" height="27.7891" style="stroke:#000000;stroke-width:2;" width="153.9512" x="470.1311" y="721.4844"/><text fill="#000000" font-family="sans-serif" font-size="17" font-weight="bold" lengthAdjust="spacing" textLength="139.9512" x="476.1311" y="741.2642">steady state =</text><path d="M602,764.2734 L602,819.2734 L991,819.2734 L991,774.2734 L981,764.2734 L602,764.2734" fill="#FEFFDD" style="stroke:#181818;stroke-width:0.5;"/><path d="M981,764.2734 L981,774.2734 L991,774.2734 L981,764.2734" fill="#FEFFDD" style="stroke:#181818;stroke-width:0.5;"/><text fill="#000000" font-family="sans-serif" font-size="13" lengthAdjust="spacing" textLength="312.4253" x="608" y="781.3403">Orchestrator changes the MN-CSE configuration</text><text fill="#000000" font-family="sans-serif" font-size="13" lengthAdjust="spacing" textLength="368.3354" x="608" y="796.4731">creates &lt;contentInstance&gt; with new data (change port)</text><text fill="#000000" font-family="sans-serif" font-size="13" lengthAdjust="spacing" textLength="272.7969" x="608" y="811.606">in Cgatewayagent/gateway/data resource</text><g class="message" data-participant-1="CB" data-participant-2="IN"><polygon fill="#181818" points="545.9331,841.8047,535.9331,845.8047,545.9331,849.8047,541.9331,845.8047" style="stroke:#181818;stroke-width:1;"/><line style="stroke:#181818;stroke-width:1;" x1="539.9331" x2="995.4326" y1="845.8047" y2="845.8047"/><text fill="#000000" font-family="sans-serif" font-size="13" lengthAdjust="spacing" textLength="437.4995" x="551.9331" y="840.7388">CREATE contentInstance in Cgatewayagent/gateway/data resource</text></g><path d="M277,858.8047 L277,883.8047 L591,883.8047 L591,868.8047 L581,858.8047 L277,858.8047" fill="#FEFFDD" style="stroke:#181818;stroke-width:0.5;"/><path d="M581,858.8047 L581,868.8047 L591,868.8047 L581,858.8047" fill="#FEFFDD" style="stroke:#181818;stroke-width:0.5;"/><text fill="#000000" font-family="sans-serif" font-size="13" lengthAdjust="spacing" textLength="281.0361" x="289.3975" y="875.8716">IN-CSE notifies Gateway Agent of new data</text><g class="message" data-participant-1="IN" data-participant-2="GA"><polygon fill="#181818" points="88.6421,906.0703,78.6421,910.0703,88.6421,914.0703,84.6421,910.0703" style="stroke:#181818;stroke-width:1;"/><line style="stroke:#181818;stroke-width:1;" x1="82.6421" x2="533.9331" y1="910.0703" y2="910.0703"/><text fill="#000000" font-family="sans-serif" font-size="13" lengthAdjust="spacing" textLength="200.1543" x="94.6421" y="905.0044">NOTIFY of new data (new port)</text></g><path d="M82,923.0703 L82,978.0703 L276,978.0703 L276,933.0703 L266,923.0703 L82,923.0703" fill="#FEFFDD" style="stroke:#181818;stroke-width:0.5;"/><path d="M266,923.0703 L266,933.0703 L276,933.0703 L266,923.0703" fill="#FEFFDD" style="stroke:#181818;stroke-width:0.5;"/><text fill="#000000" font-family="sans-serif" font-size="13" lengthAdjust="spacing" textLength="165.439" x="88" y="940.1372">modify config.ini with the</text><text fill="#000000" font-family="sans-serif" font-size="13" lengthAdjust="spacing" textLength="133.0977" x="88" y="955.27">mn-cse name and id</text><text fill="#000000" font-family="sans-serif" font-size="13" lengthAdjust="spacing" textLength="173.4116" x="88" y="970.4028">(re)start MN-CSE in docker</text><!--SRC=[lLHDR-8m4BtFhnZrKf0AlLSKASsoY0DKskrbZwupIQmIEx9DF_xzZXrJI6Xfzx8I4f2yUVFcpKUj2iBI6FzeNW5QORsIgXNQup93uV1YAJozYBUi8kqlUe3r9WBMcqd-Uu6ZB5ylndt4gaEiFaVaTn5nRsLDpblXZSMiRRTA2g-ClW3GnXEQPx8iw2g_0xlJA4tJ6is271gDjN4U6o5hfGcLHaUSWLLZOUGJnqcZlU1trW7f0WCX073coPmLtc3-Qv4zB72MBUP1J6wEn02m3P_WgiuP4PmvXRdTevDMjQ4CzAOFlvPDSHhIXnJ22nmbTxLeQFnL19FYY5v9xZo3OJgT9lksL0QheMTp4lX8BiYRzQZcQCcPdPNyyWOVxl9ZvyvmIalCud3sxlaSzamu4imHtt26bNPUQ4dpCK91KOZI5VgQC4rSAdrybFgaPwUENS-aqlE1Rr_4iM_xi8DxFBiSiynkS7F_iFhv1qs9cbxswjuDEjDOjcwFZkl3CTugUYRteO21CSbdgwewB2FaDSad5ntY-M-2cRUtU9aKNy8FsfB_9lN1qd_McamUCE9GRMCALRw5tIjLDLLQuOloTLGFZPv8Hx4t6CfG1SB8qfYvR3WhiNEyoDt-7edjtG86mb1ofPpdFUzoTKGmyhLoo1_1bu7r50bduuN12SAEnGXalINPm1CtF4uEdZYrFZq4nnUIDS4jjuLbYEADly8TuWTdbwOMkgAkiwduphPT9n5wMzLpFTOPfh8x5XqJjiRwCR21_SwbFzrXsO_lkUqQfCDlCXwwjDvShJQGpZy_LgKYDvYpj5Q1ug3bi-NhoWo_kXh_mzJz1G00]--></g></svg>