<svg xmlns="http://www.w3.org/2000/svg" xmlns:xlink="http://www.w3.org/1999/xlink" contentStyleType="text/css" data-diagram-type="SEQUENCE" height="953px" preserveAspectRatio="none" style="width:1220px;height:953px;background:#FFFFFF;" version="1.1" viewBox="0 0 1220 953" width="1220px" zoomAndPan="magnify"><defs/><g><g><title>GatewayAgent</title><rect fill="#000000" fill-opacity="0.00000" height="910.5156" width="8" x="143.6421" y="36.2969"/><line style="stroke:#181818;stroke-width:0.5;stroke-dasharray:5,5;" x1="147" x2="147" y1="36.2969" y2="946.8125"/></g><g><title>MN-CSE .ACME.</title><rect fill="#000000" fill-opacity="0.00000" height="910.5156" width="8" x="274.6655" y="36.2969"/><line style="stroke:#181818;stroke-width:0.5;stroke-dasharray:5,5;" x1="278.2842" x2="278.2842" y1="36.2969" y2="946.8125"/></g><g><title>IN-CSE .ACME.</title><rect fill="#000000" fill-opacity="0.00000" height="910.5156" width="8" x="565.6274" y="36.2969"/><line style="stroke:#181818;stroke-width:0.5;stroke-dasharray:5,5;" x1="569.2212" x2="569.2212" y1="36.2969" y2="946.8125"/></g><g><title>Orchestrator Application</title><rect fill="#000000" fill-opacity="0.00000" height="910.5156" width="8" x="1013.4033" y="36.2969"/><line style="stroke:#181818;stroke-width:0.5;stroke-dasharray:5,5;" x1="1016.6226" x2="1016.6226" y1="36.2969" y2="946.8125"/></g><g class="participant participant-head" data-participant="GA"><rect fill="#E2E2F0" height="30.2969" rx="2.5" ry="2.5" style="stroke:#181818;stroke-width:0.5;" width="117.2842" x="89" y="5"/><text fill="#000000" font-family="sans-serif" font-size="14" lengthAdjust="spacing" textLength="103.2842" x="96" y="24.9951">GatewayAgent</text></g><g class="participant participant-head" data-participant="MN"><rect fill="#E2E2F0" height="30.2969" rx="2.5" ry="2.5" style="stroke:#181818;stroke-width:0.5;" width="124.7627" x="216.2842" y="5"/><text fill="#000000" font-family="sans-serif" font-size="14" lengthAdjust="spacing" textLength="110.7627" x="223.2842" y="24.9951">MN-CSE (ACME)</text></g><g class="participant participant-head" data-participant="IN"><rect fill="#E2E2F0" height="30.2969" rx="2.5" ry="2.5" style="stroke:#181818;stroke-width:0.5;" width="116.8125" x="511.2212" y="5"/><text fill="#000000" font-family="sans-serif" font-size="14" lengthAdjust="spacing" textLength="102.8125" x="518.2212" y="24.9951">IN-CSE (ACME)</text></g><g class="participant participant-head" data-participant="CB"><rect fill="#E2E2F0" height="30.2969" rx="2.5" ry="2.5" style="stroke:#181818;stroke-width:0.5;" width="185.5615" x="924.6226" y="5"/><text fill="#000000" font-family="sans-serif" font-size="14" lengthAdjust="spacing" textLength="171.5615" x="931.6226" y="24.9951">Orchestrator Application</text></g><path d="M74,51.2969 L74,76.2969 L1090,76.2969 L1090,61.2969 L1080,51.2969 L74,51.2969" fill="#FEFFDD" style="stroke:#181818;stroke-width:0.5;"/><path d="M1080,51.2969 L1080,61.2969 L1090,61.2969 L1080,51.2969" fill="#FEFFDD" style="stroke:#181818;stroke-width:0.5;"/><text fill="#000000" font-family="sans-serif" font-size="13" lengthAdjust="spacing" textLength="377.6348" x="388.7747" y="68.3638">all will run on host machine in separate docker containers</text><path d="M821,86.4297 L821,141.4297 L1213,141.4297 L1213,96.4297 L1203,86.4297 L821,86.4297" fill="#FEFFDD" style="stroke:#181818;stroke-width:0.5;"/><path d="M1203,86.4297 L1203,96.4297 L1213,96.4297 L1203,86.4297" fill="#FEFFDD" style="stroke:#181818;stroke-width:0.5;"/><text fill="#000000" font-family="sans-serif" font-size="13" lengthAdjust="spacing" textLength="371.4966" x="827" y="103.4966">Orchestrator Application registers with IN-CSE on startup</text><text fill="#000000" font-family="sans-serif" font-size="13" lengthAdjust="spacing" textLength="160.3989" x="827" y="118.6294">originator: Sorchestrator</text><text fill="#000000" font-family="sans-serif" font-size="13" lengthAdjust="spacing" textLength="226.186" x="827" y="133.7622">notification URL: NOT NEEDED YET</text><g class="message" data-participant-1="GA" data-participant-2="IN"><polygon fill="#181818" points="557.6274,163.9609,567.6274,167.9609,557.6274,171.9609,561.6274,167.9609" style="stroke:#181818;stroke-width:1;"/><line style="stroke:#181818;stroke-width:1;" x1="147.6421" x2="563.6274" y1="167.9609" y2="167.9609"/><text fill="#000000" font-family="sans-serif" font-size="13" lengthAdjust="spacing" textLength="72.6108" x="154.6421" y="162.895">CREATE AE</text></g><g class="message" data-participant-1="GA" data-participant-2="IN"><polygon fill="#181818" points="557.6274,193.0938,567.6274,197.0938,557.6274,201.0938,561.6274,197.0938" style="stroke:#181818;stroke-width:1;"/><line style="stroke:#181818;stroke-width:1;" x1="147.6421" x2="563.6274" y1="197.0938" y2="197.0938"/><text fill="#000000" font-family="sans-serif" font-size="13" lengthAdjust="spacing" textLength="262.9961" x="154.6421" y="192.0278">CREATE subscription to Sgateway &lt;AE&gt;</text></g><path d="M891,210.0938 L891,265.0938 L1142,265.0938 L1142,220.0938 L1132,210.0938 L891,210.0938" fill="#FEFFDD" style="stroke:#181818;stroke-width:0.5;"/><path d="M1132,210.0938 L1132,220.0938 L1142,220.0938 L1132,210.0938" fill="#FEFFDD" style="stroke:#181818;stroke-width:0.5;"/><text fill="#000000" font-family="sans-serif" font-size="13" lengthAdjust="spacing" textLength="222.5107" x="897" y="227.1606">Orchestrator creates &lt;container&gt;</text><text fill="#000000" font-family="sans-serif" font-size="13" lengthAdjust="spacing" textLength="226.5161" x="897" y="242.2935">resource (and &lt;contentInstance&gt;)</text><text fill="#000000" font-family="sans-serif" font-size="13" lengthAdjust="spacing" textLength="215.8267" x="897" y="257.4263">describing the Gateway(MN-CSE)</text><g class="message" data-participant-1="CB" data-participant-2="IN"><polygon fill="#181818" points="580.6274,287.625,570.6274,291.625,580.6274,295.625,576.6274,291.625" style="stroke:#181818;stroke-width:1;"/><line style="stroke:#181818;stroke-width:1;" x1="574.6274" x2="1016.4033" y1="291.625" y2="291.625"/><text fill="#000000" font-family="sans-serif" font-size="13" lengthAdjust="spacing" textLength="279.8745" x="586.6274" y="286.5591">CREATE Sorchestrator/gateway (container)</text></g><g class="message" data-participant-1="IN" data-participant-2="GA"><polygon fill="#181818" points="158.6421,316.7578,148.6421,320.7578,158.6421,324.7578,154.6421,320.7578" style="stroke:#181818;stroke-width:1;"/><line style="stroke:#181818;stroke-width:1;" x1="152.6421" x2="568.6274" y1="320.7578" y2="320.7578"/><text fill="#000000" font-family="sans-serif" font-size="13" lengthAdjust="spacing" textLength="217.3057" x="164.6421" y="315.6919">NOTIFY of new Gateway resource</text></g><g class="message" data-participant-1="CB" data-participant-2="IN"><polygon fill="#181818" points="580.6274,345.8906,570.6274,349.8906,580.6274,353.8906,576.6274,349.8906" style="stroke:#181818;stroke-width:1;"/><line style="stroke:#181818;stroke-width:1;" x1="574.6274" x2="1016.4033" y1="349.8906" y2="349.8906"/><text fill="#000000" font-family="sans-serif" font-size="13" lengthAdjust="spacing" textLength="344.1128" x="586.6274" y="344.8247">CREATE Sorchestrator/gateway/data (MN-CSE name)</text></g><g class="message" data-participant-1="CB" data-participant-2="IN"><polygon fill="#181818" points="580.6274,375.0234,570.6274,379.0234,580.6274,383.0234,576.6274,379.0234" style="stroke:#181818;stroke-width:1;"/><line style="stroke:#181818;stroke-width:1;" x1="574.6274" x2="1016.4033" y1="379.0234" y2="379.0234"/><text fill="#000000" font-family="sans-serif" font-size="13" lengthAdjust="spacing" textLength="302.8911" x="586.6274" y="373.9575">CREATE Sorchestrator/gateway/cmd (execute)</text></g><path d="M5,392.0234 L5,432.0234 L290,432.0234 L290,402.0234 L280,392.0234 L5,392.0234" fill="#FEFFDD" style="stroke:#181818;stroke-width:0.5;"/><path d="M280,392.0234 L280,402.0234 L290,402.0234 L280,392.0234" fill="#FEFFDD" style="stroke:#181818;stroke-width:0.5;"/><text fill="#000000" font-family="sans-serif" font-size="13" lengthAdjust="spacing" textLength="152.4961" x="11" y="409.0903">Gateway Agent creates</text><text fill="#000000" font-family="sans-serif" font-size="13" lengthAdjust="spacing" textLength="264.3989" x="11" y="424.2231">&lt;subscription&gt; to the gateway resource</text><g class="message" data-participant-1="GA" data-participant-2="IN"><polygon fill="#181818" points="557.6274,454.4219,567.6274,458.4219,557.6274,462.4219,561.6274,458.4219" style="stroke:#181818;stroke-width:1;"/><line style="stroke:#181818;stroke-width:1;stroke-dasharray:2,2;" x1="147.6421" x2="563.6274" y1="458.4219" y2="458.4219"/><text fill="#000000" font-family="sans-serif" font-size="13" lengthAdjust="spacing" textLength="397.9854" x="154.6421" y="453.356">CREATE subscription to Sorchestrator/gateway/cmd resource</text></g><g class="message" data-participant-1="IN" data-participant-2="GA"><polygon fill="#181818" points="158.6421,483.5547,148.6421,487.5547,158.6421,491.5547,154.6421,487.5547" style="stroke:#181818;stroke-width:1;"/><line style="stroke:#181818;stroke-width:1;stroke-dasharray:2,2;" x1="152.6421" x2="568.6274" y1="487.5547" y2="487.5547"/><text fill="#000000" font-family="sans-serif" font-size="13" lengthAdjust="spacing" textLength="214.4302" x="164.6421" y="482.4888">NOTIFY of cmd resource creation</text></g><g class="message" data-participant-1="GA" data-participant-2="IN"><polygon fill="#181818" points="557.6274,512.6875,567.6274,516.6875,557.6274,520.6875,561.6274,516.6875" style="stroke:#181818;stroke-width:1;"/><line style="stroke:#181818;stroke-width:1;" x1="147.6421" x2="563.6274" y1="516.6875" y2="516.6875"/><text fill="#000000" font-family="sans-serif" font-size="13" lengthAdjust="spacing" textLength="195.4443" x="154.6421" y="511.6216">Gateway Agent retrieves data</text></g><g class="message" data-participant-1="IN" data-participant-2="GA"><polygon fill="#181818" points="158.6421,541.8203,148.6421,545.8203,158.6421,549.8203,154.6421,545.8203" style="stroke:#181818;stroke-width:1;"/><line style="stroke:#181818;stroke-width:1;stroke-dasharray:2,2;" x1="152.6421" x2="568.6274" y1="545.8203" y2="545.8203"/><text fill="#000000" font-family="sans-serif" font-size="13" lengthAdjust="spacing" textLength="191.6992" x="164.6421" y="540.7544">200 OK, data (MN-CSE name)</text></g><path d="M36,558.8203 L36,613.8203 L258,613.8203 L258,568.8203 L248,558.8203 L36,558.8203" fill="#FEFFDD" style="stroke:#181818;stroke-width:0.5;"/><path d="M248,558.8203 L248,568.8203 L258,568.8203 L248,558.8203" fill="#FEFFDD" style="stroke:#181818;stroke-width:0.5;"/><text fill="#000000" font-family="sans-serif" font-size="13" lengthAdjust="spacing" textLength="149.9253" x="42" y="575.8872">start MN-CSE in docker</text><text fill="#000000" font-family="sans-serif" font-size="13" lengthAdjust="spacing" textLength="137.6108" x="42" y="591.02">ini config modified to</text><text fill="#000000" font-family="sans-serif" font-size="13" lengthAdjust="spacing" textLength="201.2842" x="42" y="606.1528">register with IN-CSE on startup</text><path d="M10,624.2188 L10,649.2188 L283,649.2188 L283,634.2188 L273,624.2188 L10,624.2188" fill="#FEFFDD" style="stroke:#181818;stroke-width:0.5;"/><path d="M273,624.2188 L273,634.2188 L283,634.2188 L273,624.2188" fill="#FEFFDD" style="stroke:#181818;stroke-width:0.5;"/><text fill="#000000" font-family="sans-serif" font-size="13" lengthAdjust="spacing" textLength="248.3838" x="16" y="641.2856">Gateway Agent registers with MN-CSE</text><g class="message" data-participant-1="GA" data-participant-2="MN"><polygon fill="#181818" points="266.6655,671.4844,276.6655,675.4844,266.6655,679.4844,270.6655,675.4844" style="stroke:#181818;stroke-width:1;"/><line style="stroke:#181818;stroke-width:1;" x1="147.6421" x2="272.6655" y1="675.4844" y2="675.4844"/><text fill="#000000" font-family="sans-serif" font-size="13" lengthAdjust="spacing" textLength="72.6108" x="154.6421" y="670.4185">CREATE AE</text></g><path d="M91,688.4844 L91,728.4844 L625,728.4844 L625,698.4844 L615,688.4844 L91,688.4844" fill="#FEFFDD" style="stroke:#181818;stroke-width:0.5;"/><path d="M615,688.4844 L615,698.4844 L625,698.4844 L615,688.4844" fill="#FEFFDD" style="stroke:#181818;stroke-width:0.5;"/><text fill="#000000" font-family="sans-serif" font-size="13" lengthAdjust="spacing" textLength="390.1587" x="134.6179" y="705.5513">Gateway Agent updates &lt;subscription&gt; to Sgateway &lt;AE&gt;</text><text fill="#000000" font-family="sans-serif" font-size="13" lengthAdjust="spacing" textLength="437.7979" x="134.6179" y="720.6841">so that notifications go to the Gateway Agent throught the MN-CSE</text><g class="message" data-participant-1="GA" data-participant-2="IN"><polygon fill="#181818" points="557.6274,750.8828,567.6274,754.8828,557.6274,758.8828,561.6274,754.8828" style="stroke:#181818;stroke-width:1;"/><line style="stroke:#181818;stroke-width:1;" x1="147.6421" x2="563.6274" y1="754.8828" y2="754.8828"/><text fill="#000000" font-family="sans-serif" font-size="13" lengthAdjust="spacing" textLength="280.9536" x="154.6421" y="749.8169">UPDATE subscription(s) to Sgateway &lt;AE&gt;</text></g><path d="M871,767.8828 L871,822.8828 L1162,822.8828 L1162,777.8828 L1152,767.8828 L871,767.8828" fill="#FEFFDD" style="stroke:#181818;stroke-width:0.5;"/><path d="M1152,767.8828 L1152,777.8828 L1162,777.8828 L1152,767.8828" fill="#FEFFDD" style="stroke:#181818;stroke-width:0.5;"/><text fill="#000000" font-family="sans-serif" font-size="13" lengthAdjust="spacing" textLength="265.9795" x="877" y="784.9497">Orchestrator creates &lt;contentInstance&gt;</text><text fill="#000000" font-family="sans-serif" font-size="13" lengthAdjust="spacing" textLength="184.8945" x="877" y="800.0825">with new data (change port)</text><text fill="#000000" font-family="sans-serif" font-size="13" lengthAdjust="spacing" textLength="259.0732" x="877" y="815.2153">in Sorchestrator/gateway/data resource</text><g class="message" data-participant-1="CB" data-participant-2="IN"><polygon fill="#181818" points="580.6274,845.4141,570.6274,849.4141,580.6274,853.4141,576.6274,849.4141" style="stroke:#181818;stroke-width:1;"/><line style="stroke:#181818;stroke-width:1;" x1="574.6274" x2="1016.4033" y1="849.4141" y2="849.4141"/><text fill="#000000" font-family="sans-serif" font-size="13" lengthAdjust="spacing" textLength="423.7759" x="586.6274" y="844.3481">CREATE contentInstance in Sorchestrator/gateway/data resource</text></g><path d="M220,862.4141 L220,902.4141 L626,902.4141 L626,872.4141 L616,862.4141 L220,862.4141" fill="#FEFFDD" style="stroke:#181818;stroke-width:0.5;"/><path d="M616,862.4141 L616,872.4141 L626,872.4141 L616,862.4141" fill="#FEFFDD" style="stroke:#181818;stroke-width:0.5;"/><text fill="#000000" font-family="sans-serif" font-size="13" lengthAdjust="spacing" textLength="242.2012" x="295.708" y="879.481">IN-CSE (through the MN-CSE) notifies</text><text fill="#000000" font-family="sans-serif" font-size="13" lengthAdjust="spacing" textLength="181.1177" x="295.708" y="894.6138">Gateway Agent of new data</text><g class="message" data-participant-1="IN" data-participant-2="GA"><polygon fill="#181818" points="158.6421,924.8125,148.6421,928.8125,158.6421,932.8125,154.6421,928.8125" style="stroke:#181818;stroke-width:1;"/><line style="stroke:#181818;stroke-width:1;" x1="152.6421" x2="568.6274" y1="928.8125" y2="928.8125"/><text fill="#000000" font-family="sans-serif" font-size="13" lengthAdjust="spacing" textLength="200.1543" x="164.6421" y="923.7466">NOTIFY of new data (new port)</text></g><!--SRC=[dLLDR-8m4BtxLunwIgHMhVQ8458AMOHs2Qj23pqQnoJMWXtPJkd- -ntdWyJXOz5oG2WUltdpthoGYvJ3JYcxLL-455HRmKH1fOLv1DJ0mvnQVgH_eenB- -0LB9EgO9ayJTSn1D5q6OT-nQAkM5olcBvM5IlDScwifbPfY8fYBnYrGia7GgIo7DGdrqZeSVfAw7uFHu5VkfIW9EJAM3XGbWl9GKWm7F6HCwIA_SPRJ4bByKmRmcKA3exqKH7oMdVGF1F6ubNiQ7Devi03Ot66iY1AYqn8Tsy4QzM3SGt4hiLvV_ivWcIrWIIEP_4CFk9Ddmn1gPyc23-2wLiSRMA8uWiFJRarJ8kYWhGArbbj3OoZU79h9AOvLXeOdxIO4CsDAZNZ450aKfsWmGk9aqd69o6GbBjkMo4pi3c7PW-2skwmnnyzz8bwIZotB8DJzv3WOk2LULIfilZ-0Me7aX_R9j2oknVyEQMMGiCD93tmyDwRx912mByuAorUylUDj7ogxJ_fICPzAoRE2wTGDYJVIUIy_8UPLybrMZZLpcJhbzGC4R7R7XY1FuJcLWl-YMDKclL1lxsymEh78rmGqvUbMdze2Z1pTTI8aCB5RISoEAWKrv-dRZJInkXQYZgTReW_o6BJVA3n19zx8VBU7ejaW5aMQHsCCp_zR1bdCBNG3xM1JBNE-wWsrwhCSbiTrJnFD04_lMI__veDbo4muV-7knzX89LGBbQreIodCkDGA6r3zEfMaYwiy5cS1ltWJiHkacNY76d_71hLUgA5ZTukSRx2pTl20NSChxrJwk7Thsholm00]--></g></svg>