<svg xmlns="http://www.w3.org/2000/svg" xmlns:xlink="http://www.w3.org/1999/xlink" contentStyleType="text/css" data-diagram-type="SEQUENCE" height="1000px" preserveAspectRatio="none" style="width:1198px;height:1000px;background:#FFFFFF;" version="1.1" viewBox="0 0 1198 1000" width="1198px" zoomAndPan="magnify"><defs/><g><g><title>GatewayAgent</title><rect fill="#000000" fill-opacity="0.00000" height="190.7969" width="8" x="170.6421" y="36.2969"/><line style="stroke:#181818;stroke-width:0.5;stroke-dasharray:5,5;" x1="174" x2="174" y1="36.2969" y2="227.0938"/></g><line style="stroke:#181818;stroke-width:0.5;stroke-dasharray:1,4;" x1="174" x2="174" y1="227.0938" y2="255.0938"/><g><title>GatewayAgent</title><rect fill="#000000" fill-opacity="0.00000" height="738.375" width="8" x="170.6421" y="255.0938"/><line style="stroke:#181818;stroke-width:0.5;stroke-dasharray:5,5;" x1="174" x2="174" y1="255.0938" y2="993.4688"/></g><g><title>MN-CSE .ACME.</title><rect fill="#000000" fill-opacity="0.00000" height="190.7969" width="8" x="428.8896" y="36.2969"/><line style="stroke:#181818;stroke-width:0.5;stroke-dasharray:5,5;" x1="432.5083" x2="432.5083" y1="36.2969" y2="227.0938"/></g><line style="stroke:#181818;stroke-width:0.5;stroke-dasharray:1,4;" x1="432.5083" x2="432.5083" y1="227.0938" y2="255.0938"/><g><title>MN-CSE .ACME.</title><rect fill="#000000" fill-opacity="0.00000" height="738.375" width="8" x="428.8896" y="255.0938"/><line style="stroke:#181818;stroke-width:0.5;stroke-dasharray:5,5;" x1="432.5083" x2="432.5083" y1="255.0938" y2="993.4688"/></g><g><title>IN-CSE .ACME.</title><rect fill="#000000" fill-opacity="0.00000" height="190.7969" width="8" x="627.9331" y="36.2969"/><line style="stroke:#181818;stroke-width:0.5;stroke-dasharray:5,5;" x1="631.5269" x2="631.5269" y1="36.2969" y2="227.0938"/></g><line style="stroke:#181818;stroke-width:0.5;stroke-dasharray:1,4;" x1="631.5269" x2="631.5269" y1="227.0938" y2="255.0938"/><g><title>IN-CSE .ACME.</title><rect fill="#000000" fill-opacity="0.00000" height="738.375" width="8" x="627.9331" y="255.0938"/><line style="stroke:#181818;stroke-width:0.5;stroke-dasharray:5,5;" x1="631.5269" x2="631.5269" y1="255.0938" y2="993.4688"/></g><g><title>Orchestrator Application</title><rect fill="#000000" fill-opacity="0.00000" height="190.7969" width="8" x="1089.4326" y="36.2969"/><line style="stroke:#181818;stroke-width:0.5;stroke-dasharray:5,5;" x1="1092.6519" x2="1092.6519" y1="36.2969" y2="227.0938"/></g><line style="stroke:#181818;stroke-width:0.5;stroke-dasharray:1,4;" x1="1092.6519" x2="1092.6519" y1="227.0938" y2="255.0938"/><g><title>Orchestrator Application</title><rect fill="#000000" fill-opacity="0.00000" height="738.375" width="8" x="1089.4326" y="255.0938"/><line style="stroke:#181818;stroke-width:0.5;stroke-dasharray:5,5;" x1="1092.6519" x2="1092.6519" y1="255.0938" y2="993.4688"/></g><g class="participant participant-head" data-participant="GA"><rect fill="#E2E2F0" height="30.2969" rx="2.5" ry="2.5" style="stroke:#181818;stroke-width:0.5;" width="117.2842" x="116" y="5"/><text fill="#000000" font-family="sans-serif" font-size="14" lengthAdjust="spacing" textLength="103.2842" x="123" y="24.9951">GatewayAgent</text></g><g class="participant participant-head" data-participant="MN"><rect fill="#E2E2F0" height="30.2969" rx="2.5" ry="2.5" style="stroke:#181818;stroke-width:0.5;" width="124.7627" x="370.5083" y="5"/><text fill="#000000" font-family="sans-serif" font-size="14" lengthAdjust="spacing" textLength="110.7627" x="377.5083" y="24.9951">MN-CSE (ACME)</text></g><g class="participant participant-head" data-participant="IN"><rect fill="#E2E2F0" height="30.2969" rx="2.5" ry="2.5" style="stroke:#181818;stroke-width:0.5;" width="116.8125" x="573.5269" y="5"/><text fill="#000000" font-family="sans-serif" font-size="14" lengthAdjust="spacing" textLength="102.8125" x="580.5269" y="24.9951">IN-CSE (ACME)</text></g><g class="participant participant-head" data-participant="CB"><rect fill="#E2E2F0" height="30.2969" rx="2.5" ry="2.5" style="stroke:#181818;stroke-width:0.5;" width="185.5615" x="1000.6519" y="5"/><text fill="#000000" font-family="sans-serif" font-size="14" lengthAdjust="spacing" textLength="171.5615" x="1007.6519" y="24.9951">Orchestrator Application</text></g><path d="M101,51.2969 L101,76.2969 L1166,76.2969 L1166,61.2969 L1156,51.2969 L101,51.2969" fill="#FEFFDD" style="stroke:#181818;stroke-width:0.5;"/><path d="M1156,51.2969 L1156,61.2969 L1166,61.2969 L1156,51.2969" fill="#FEFFDD" style="stroke:#181818;stroke-width:0.5;"/><text fill="#000000" font-family="sans-serif" font-size="13" lengthAdjust="spacing" textLength="417.1616" x="420.5259" y="68.3638">run components on host machine in separate docker containers</text><g class="message" data-participant-1="CB" data-participant-2="IN"><polygon fill="#181818" points="642.9331,98.5625,632.9331,102.5625,642.9331,106.5625,638.9331,102.5625" style="stroke:#181818;stroke-width:1;"/><line style="stroke:#181818;stroke-width:1;" x1="636.9331" x2="1092.4326" y1="102.5625" y2="102.5625"/><text fill="#000000" font-family="sans-serif" font-size="13" lengthAdjust="spacing" textLength="206.7368" x="648.9331" y="97.4966">CREATE &lt;AE&gt; as Corchestrator</text></g><g class="message" data-participant-1="GA" data-participant-2="IN"><polygon fill="#181818" points="619.9331,127.6953,629.9331,131.6953,619.9331,135.6953,623.9331,131.6953" style="stroke:#181818;stroke-width:1;"/><line style="stroke:#181818;stroke-width:1;" x1="174.6421" x2="625.9331" y1="131.6953" y2="131.6953"/><text fill="#000000" font-family="sans-serif" font-size="13" lengthAdjust="spacing" textLength="219.6353" x="181.6421" y="126.6294">CREATE &lt;AE&gt; as Cgatewayagent</text></g><g class="message" data-participant-1="GA" data-participant-2="IN"><polygon fill="#181818" points="619.9331,156.8281,629.9331,160.8281,619.9331,164.8281,623.9331,160.8281" style="stroke:#181818;stroke-width:1;"/><line style="stroke:#181818;stroke-width:1;" x1="174.6421" x2="625.9331" y1="160.8281" y2="160.8281"/><text fill="#000000" font-family="sans-serif" font-size="13" lengthAdjust="spacing" textLength="290.7925" x="181.6421" y="155.7622">CREATE subscription to Cgatewayagent/cmd</text></g><g class="message" data-participant-1="GA" data-participant-2="IN"><polygon fill="#181818" points="619.9331,185.9609,629.9331,189.9609,619.9331,193.9609,623.9331,189.9609" style="stroke:#181818;stroke-width:1;"/><line style="stroke:#181818;stroke-width:1;" x1="174.6421" x2="625.9331" y1="189.9609" y2="189.9609"/><text fill="#000000" font-family="sans-serif" font-size="13" lengthAdjust="spacing" textLength="297.8511" x="181.6421" y="184.895">CREATE Cgatewayagent/data (MN-CSE name)</text></g><g class="message" data-participant-1="GA" data-participant-2="IN"><polygon fill="#181818" points="619.9331,215.0938,629.9331,219.0938,619.9331,223.0938,623.9331,219.0938" style="stroke:#181818;stroke-width:1;"/><line style="stroke:#181818;stroke-width:1;" x1="174.6421" x2="625.9331" y1="219.0938" y2="219.0938"/><text fill="#000000" font-family="sans-serif" font-size="13" lengthAdjust="spacing" textLength="256.6294" x="181.6421" y="214.0278">CREATE Cgatewayagent/cmd (execute)</text></g><path d="M659,260.0938 L659,285.0938 L1087,285.0938 L1087,270.0938 L1077,260.0938 L659,260.0938" fill="#FEFFDD" style="stroke:#181818;stroke-width:0.5;"/><path d="M1077,260.0938 L1077,270.0938 L1087,270.0938 L1077,260.0938" fill="#FEFFDD" style="stroke:#181818;stroke-width:0.5;"/><text fill="#000000" font-family="sans-serif" font-size="13" lengthAdjust="spacing" textLength="407.4561" x="665" y="277.1606">Orchestrator subscribes to &lt;Cgatewayagent&gt; resources : TBC</text><path d="M836,295.2266 L836,350.2266 L1087,350.2266 L1087,305.2266 L1077,295.2266 L836,295.2266" fill="#FEFFDD" style="stroke:#181818;stroke-width:0.5;"/><path d="M1077,295.2266 L1077,305.2266 L1087,305.2266 L1077,295.2266" fill="#FEFFDD" style="stroke:#181818;stroke-width:0.5;"/><text fill="#000000" font-family="sans-serif" font-size="13" lengthAdjust="spacing" textLength="222.5107" x="842" y="312.2935">Orchestrator creates &lt;container&gt;</text><text fill="#000000" font-family="sans-serif" font-size="13" lengthAdjust="spacing" textLength="226.5161" x="842" y="327.4263">resource (and &lt;contentInstance&gt;)</text><text fill="#000000" font-family="sans-serif" font-size="13" lengthAdjust="spacing" textLength="215.8267" x="842" y="342.5591">describing the Gateway(MN-CSE)</text><g class="message" data-participant-1="CB" data-participant-2="IN"><polygon fill="#181818" points="642.9331,372.7578,632.9331,376.7578,642.9331,380.7578,638.9331,376.7578" style="stroke:#181818;stroke-width:1;"/><line style="stroke:#181818;stroke-width:1;" x1="636.9331" x2="1092.4326" y1="376.7578" y2="376.7578"/><text fill="#000000" font-family="sans-serif" font-size="13" lengthAdjust="spacing" textLength="343.0146" x="648.9331" y="371.6919">CREATE Cgatewayagent/data/&lt;cin&gt; (MN-CSE name)</text></g><g class="message" data-participant-1="CB" data-participant-2="IN"><polygon fill="#181818" points="642.9331,401.8906,632.9331,405.8906,642.9331,409.8906,638.9331,405.8906" style="stroke:#181818;stroke-width:1;"/><line style="stroke:#181818;stroke-width:1;" x1="636.9331" x2="1092.4326" y1="405.8906" y2="405.8906"/><text fill="#000000" font-family="sans-serif" font-size="13" lengthAdjust="spacing" textLength="301.793" x="648.9331" y="400.8247">CREATE Cgatewayagent/cmd/&lt;cin&gt; (execute)</text></g><g class="message" data-participant-1="IN" data-participant-2="GA"><polygon fill="#181818" points="185.6421,431.0234,175.6421,435.0234,185.6421,439.0234,181.6421,435.0234" style="stroke:#181818;stroke-width:1;"/><line style="stroke:#181818;stroke-width:1;" x1="179.6421" x2="630.9331" y1="435.0234" y2="435.0234"/><text fill="#000000" font-family="sans-serif" font-size="13" lengthAdjust="spacing" textLength="356.1162" x="191.6421" y="429.9575">NOTIFY of new Gateway resource Cgatewayagent/cmd</text></g><g class="message" data-participant-1="GA" data-participant-2="IN"><polygon fill="#181818" points="619.9331,460.1563,629.9331,464.1563,619.9331,468.1563,623.9331,464.1563" style="stroke:#181818;stroke-width:1;"/><line style="stroke:#181818;stroke-width:1;" x1="174.6421" x2="625.9331" y1="464.1563" y2="464.1563"/><text fill="#000000" font-family="sans-serif" font-size="13" lengthAdjust="spacing" textLength="432.0723" x="181.6421" y="459.0903">Gateway Agent retrieves Cgatewayagent/cmd/&lt;contentInstance&gt;</text></g><path d="M5,477.1563 L5,517.1563 L345,517.1563 L345,487.1563 L335,477.1563 L5,477.1563" fill="#FEFFDD" style="stroke:#181818;stroke-width:0.5;"/><path d="M335,477.1563 L335,487.1563 L345,487.1563 L335,477.1563" fill="#FEFFDD" style="stroke:#181818;stroke-width:0.5;"/><text fill="#000000" font-family="sans-serif" font-size="13" lengthAdjust="spacing" textLength="230.6167" x="11" y="494.2231">Checks the command == 'execute'</text><text fill="#000000" font-family="sans-serif" font-size="13" lengthAdjust="spacing" textLength="319.5283" x="11" y="509.356">Deletes Cgatewayagent/cmd/&lt;contentInstance&gt;</text><g class="message" data-participant-1="GA" data-participant-2="IN"><polygon fill="#181818" points="619.9331,539.5547,629.9331,543.5547,619.9331,547.5547,623.9331,543.5547" style="stroke:#181818;stroke-width:1;"/><line style="stroke:#181818;stroke-width:1;" x1="174.6421" x2="625.9331" y1="543.5547" y2="543.5547"/><text fill="#000000" font-family="sans-serif" font-size="13" lengthAdjust="spacing" textLength="433.291" x="181.6421" y="538.4888">Gateway Agent retrieves Cgatewayagent/data/&lt;contentInstance&gt;</text></g><path d="M77,556.5547 L77,611.5547 L271,611.5547 L271,566.5547 L261,556.5547 L77,556.5547" fill="#FEFFDD" style="stroke:#181818;stroke-width:0.5;"/><path d="M261,556.5547 L261,566.5547 L271,566.5547 L261,556.5547" fill="#FEFFDD" style="stroke:#181818;stroke-width:0.5;"/><text fill="#000000" font-family="sans-serif" font-size="13" lengthAdjust="spacing" textLength="165.439" x="83" y="573.6216">modify config.ini with the</text><text fill="#000000" font-family="sans-serif" font-size="13" lengthAdjust="spacing" textLength="133.0977" x="83" y="588.7544">mn-cse name and id</text><text fill="#000000" font-family="sans-serif" font-size="13" lengthAdjust="spacing" textLength="173.4116" x="83" y="603.8872">(re)start MN-CSE in docker</text><path d="M116,621.9531 L116,676.9531 L490,676.9531 L490,631.9531 L480,621.9531 L116,621.9531" fill="#FEFFDD" style="stroke:#181818;stroke-width:0.5;"/><path d="M480,621.9531 L480,631.9531 L490,631.9531 L480,621.9531" fill="#FEFFDD" style="stroke:#181818;stroke-width:0.5;"/><text fill="#000000" font-family="sans-serif" font-size="13" lengthAdjust="spacing" textLength="248.3838" x="174.4436" y="639.02">Gateway Agent registers with MN-CSE</text><text fill="#000000" font-family="sans-serif" font-size="13" lengthAdjust="spacing" textLength="194.1494" x="174.4436" y="654.1528">(this is a second registration -</text><text fill="#000000" font-family="sans-serif" font-size="13" lengthAdjust="spacing" textLength="184.0313" x="174.4436" y="669.2856">use a different &lt;AE&gt; name)</text><g class="message" data-participant-1="GA" data-participant-2="MN"><polygon fill="#181818" points="420.8896,699.4844,430.8896,703.4844,420.8896,707.4844,424.8896,703.4844" style="stroke:#181818;stroke-width:1;"/><line style="stroke:#181818;stroke-width:1;" x1="174.6421" x2="426.8896" y1="703.4844" y2="703.4844"/><text fill="#000000" font-family="sans-serif" font-size="13" lengthAdjust="spacing" textLength="234.2476" x="181.6421" y="698.4185">CREATE &lt;AE&gt; as GatewayAgentMN</text></g><rect fill="#EEEEEE" height="3" style="stroke:#EEEEEE;stroke-width:1;" width="1191.2134" x="0" y="734.3789"/><line style="stroke:#000000;stroke-width:1;" x1="0" x2="1191.2134" y1="734.3789" y2="734.3789"/><line style="stroke:#000000;stroke-width:1;" x1="0" x2="1191.2134" y1="737.3789" y2="737.3789"/><rect fill="#EEEEEE" height="27.7891" style="stroke:#000000;stroke-width:2;" width="153.9512" x="518.6311" y="721.4844"/><text fill="#000000" font-family="sans-serif" font-size="17" font-weight="bold" lengthAdjust="spacing" textLength="139.9512" x="524.6311" y="741.2642">steady state =</text><path d="M699,764.2734 L699,819.2734 L1088,819.2734 L1088,774.2734 L1078,764.2734 L699,764.2734" fill="#FEFFDD" style="stroke:#181818;stroke-width:0.5;"/><path d="M1078,764.2734 L1078,774.2734 L1088,774.2734 L1078,764.2734" fill="#FEFFDD" style="stroke:#181818;stroke-width:0.5;"/><text fill="#000000" font-family="sans-serif" font-size="13" lengthAdjust="spacing" textLength="312.4253" x="705" y="781.3403">Orchestrator changes the MN-CSE configuration</text><text fill="#000000" font-family="sans-serif" font-size="13" lengthAdjust="spacing" textLength="368.3354" x="705" y="796.4731">creates &lt;contentInstance&gt; with new data (change port)</text><text fill="#000000" font-family="sans-serif" font-size="13" lengthAdjust="spacing" textLength="272.7969" x="705" y="811.606">in Cgatewayagent/gateway/data resource</text><g class="message" data-participant-1="CB" data-participant-2="IN"><polygon fill="#181818" points="642.9331,841.8047,632.9331,845.8047,642.9331,849.8047,638.9331,845.8047" style="stroke:#181818;stroke-width:1;"/><line style="stroke:#181818;stroke-width:1;" x1="636.9331" x2="1092.4326" y1="845.8047" y2="845.8047"/><text fill="#000000" font-family="sans-serif" font-size="13" lengthAdjust="spacing" textLength="437.4995" x="648.9331" y="840.7388">CREATE contentInstance in Cgatewayagent/gateway/data resource</text></g><path d="M374,858.8047 L374,883.8047 L688,883.8047 L688,868.8047 L678,858.8047 L374,858.8047" fill="#FEFFDD" style="stroke:#181818;stroke-width:0.5;"/><path d="M678,858.8047 L678,868.8047 L688,868.8047 L678,858.8047" fill="#FEFFDD" style="stroke:#181818;stroke-width:0.5;"/><text fill="#000000" font-family="sans-serif" font-size="13" lengthAdjust="spacing" textLength="281.0361" x="386.3975" y="875.8716">IN-CSE notifies Gateway Agent of new data</text><g class="message" data-participant-1="IN" data-participant-2="GA"><polygon fill="#181818" points="185.6421,906.0703,175.6421,910.0703,185.6421,914.0703,181.6421,910.0703" style="stroke:#181818;stroke-width:1;"/><line style="stroke:#181818;stroke-width:1;" x1="179.6421" x2="630.9331" y1="910.0703" y2="910.0703"/><text fill="#000000" font-family="sans-serif" font-size="13" lengthAdjust="spacing" textLength="200.1543" x="191.6421" y="905.0044">NOTIFY of new data (new port)</text></g><path d="M77,923.0703 L77,978.0703 L271,978.0703 L271,933.0703 L261,923.0703 L77,923.0703" fill="#FEFFDD" style="stroke:#181818;stroke-width:0.5;"/><path d="M261,923.0703 L261,933.0703 L271,933.0703 L261,923.0703" fill="#FEFFDD" style="stroke:#181818;stroke-width:0.5;"/><text fill="#000000" font-family="sans-serif" font-size="13" lengthAdjust="spacing" textLength="165.439" x="83" y="940.1372">modify config.ini with the</text><text fill="#000000" font-family="sans-serif" font-size="13" lengthAdjust="spacing" textLength="133.0977" x="83" y="955.27">mn-cse name and id</text><text fill="#000000" font-family="sans-serif" font-size="13" lengthAdjust="spacing" textLength="173.4116" x="83" y="970.4028">(re)start MN-CSE in docker</text><!--SRC=[jLHDR-8m4BtFhnZrKf0AlLU0b6RPYWDKskMoH-DCYDN6ZcpJbd-_OpiK4bhQFQo412Hlthnvyr6fWh0qnc_C6q0Zh5TIDK9xVCXGEBnw49vUnJxRalPN7S1o5G7BrIZ_FST1bY_dmovYaH2Bpn7vVKGyMbcHyrPuOp5hccSbXLT6Nm5eumdD2raMT9FVWzrfbAPkZ6P13et6oZYFjP2LqeHAeoFEmAgnCFA9uwJHNl0xwu1qWO4G03ZpQCOAxp3_DS_MSvnayraGaviJCG1imoUuRN9616VEOMwtSTAg9fI1tdJXjx8kpaEwa49uWOFMNIrg6duLmQGue3UIEyzW68_7hNtFL0QheMDpAt13BiYRTAXcQCcPdPNyyWxNz_cfSnSufILcSJXvztm61oOS2EQ8RpZ3GZiljAJP4A6WA4JfBVgAi9sujlJXIUgpdfqxTZkHIizwldqHnxuTmexkyUnop4DsXwl7zUBd7pGbQdezg7itw49ZsRe3EguFntYhw8NSXm9wndH77_AAv9EB1l7ury7BwHIlMy7Ny8EUoN-J-UZeFqjjFUunOaziRGfLxiFcbMexLbhXg_9L50-r7ab7iJCOgb05mi3IaAbiE2gnRxp6QNjFj7Ok0GEXhtYhdESjJxaI4GnyfHpoH_1TO3r5YxFnlk08OSTY1BBUacpWYViTvmRFZ5gUdu7J-yYQOCfTOHcYsFDNk4ByuEBAL49lAJMsBJxPjaiIeRDJ7TDZdM4cqwb8JDWOwuV01dORr_v9P-Kml9TsgvSElybuxD9oTRDOGNly-R4g5RdUcBLB5IYEMZvRlLHc-9Lg_Fz3znS0]--></g></svg>